<svg width="20" height="19" viewBox="0 0 20 19" fill="none" xmlns="http://www.w3.org/2000/svg">
<path d="M13.5078 4.75C13.5078 2.53655 11.7135 0.742188 9.5 0.742188C7.28655 0.742188 5.49219 2.53655 5.49219 4.75C5.49219 6.96345 7.28655 8.75781 9.5 8.75781V9.5C6.87665 9.5 4.75 7.37335 4.75 4.75C4.75 2.12665 6.87665 0 9.5 0C12.1234 0 14.25 2.12665 14.25 4.75C14.25 7.37335 12.1234 9.5 9.5 9.5V8.75781C11.7135 8.75781 13.5078 6.96345 13.5078 4.75Z" fill="#FF0000"/>
<path d="M17.8496 18.2578V19H1.15039V18.2578H17.8496ZM18.2578 17.8496V16.8843C18.2578 16.8191 18.244 16.7883 18.2373 16.777C17.7647 15.9768 15.4434 12.6172 9.5 12.6172C3.5566 12.6172 1.23532 15.9768 0.762699 16.777C0.756023 16.7883 0.742188 16.8191 0.742188 16.8843V17.8496C0.742188 18.0751 0.924946 18.2578 1.15039 18.2578V19C0.515047 19 0 18.485 0 17.8496V16.8843C3.35087e-07 16.7189 0.0345351 16.557 0.115641 16.4134L0.12365 16.3995C0.680832 15.4562 3.21029 11.875 9.5 11.875C15.7897 11.875 18.3192 15.4562 18.8764 16.3995C18.9632 16.5465 19 16.7136 19 16.8843V17.8496C19 18.485 18.485 19 17.8496 19V18.2578C18.0751 18.2578 18.2578 18.0751 18.2578 17.8496Z" fill="#FF0000"/>
<path d="M17.6526 10.5877V7.00211C17.6526 6.76255 17.4585 6.56836 17.2189 6.56836C16.9794 6.56836 16.7852 6.76255 16.7852 7.00211V10.5877C16.7852 10.8273 16.9794 11.0215 17.2189 11.0215C17.4585 11.0215 17.6526 10.8273 17.6526 10.5877Z" fill="#FF0000"/>
<path d="M19.0116 8.36121H15.4259C15.1864 8.36121 14.9922 8.5554 14.9922 8.79495C14.9922 9.0345 15.1864 9.2287 15.4259 9.2287H19.0116C19.2511 9.2287 19.4453 9.0345 19.4453 8.79495C19.4453 8.5554 19.2511 8.36121 19.0116 8.36121Z" fill="#FF0000"/>
</svg>
